<svg width="80" height="80" viewBox="0 0 80 80" fill="none" xmlns="http://www.w3.org/2000/svg">
<g filter="url(#filter0_d_342_2456)">
<rect x="8" y="6" width="64" height="64" rx="16" fill="url(#paint0_linear_342_2456)"/>
</g>
<path d="M52 23H28C26.35 23 25.015 24.35 25.015 26L25 53L31 47H52C53.65 47 55 45.65 55 44V26C55 24.35 53.65 23 52 23ZM31 33.5H49V36.5H31V33.5ZM43 41H31V38H43V41ZM49 32H31V29H49V32Z" fill="white"/>
<defs>
<filter id="filter0_d_342_2456" x="0" y="0" width="80" height="80" filterUnits="userSpaceOnUse" color-interpolation-filters="sRGB">
<feFlood flood-opacity="0" result="BackgroundImageFix"/>
<feColorMatrix in="SourceAlpha" type="matrix" values="0 0 0 0 0 0 0 0 0 0 0 0 0 0 0 0 0 0 127 0" result="hardAlpha"/>
<feOffset dy="2"/>
<feGaussianBlur stdDeviation="4"/>
<feComposite in2="hardAlpha" operator="out"/>
<feColorMatrix type="matrix" values="0 0 0 0 0 0 0 0 0 0 0 0 0 0 0 0 0 0 0.15 0"/>
<feBlend mode="normal" in2="BackgroundImageFix" result="effect1_dropShadow_342_2456"/>
<feBlend mode="normal" in="SourceGraphic" in2="effect1_dropShadow_342_2456" result="shape"/>
</filter>
<linearGradient id="paint0_linear_342_2456" x1="31.6" y1="6" x2="54.8" y2="70" gradientUnits="userSpaceOnUse">
<stop offset="0.016508" stop-color="#F8BC00"/>
<stop offset="0.659506" stop-color="#FFAB2D"/>
</linearGradient>
</defs>
</svg>
