<svg width="80" height="80" viewBox="0 0 80 80" fill="none" xmlns="http://www.w3.org/2000/svg">
<g filter="url(#filter0_d_342_1436)">
<rect x="8" y="6" width="64" height="64" rx="16" fill="url(#paint0_linear_342_1436)"/>
</g>
<path d="M51.25 25.25L49 23L46.75 25.25L44.5 23L42.25 25.25L40 23L37.75 25.25L35.5 23L33.25 25.25L31 23V44H26.5V48.5C26.5 50.99 28.51 53 31 53H49C51.49 53 53.5 50.99 53.5 48.5V23L51.25 25.25ZM50.5 48.5C50.5 49.325 49.825 50 49 50C48.175 50 47.5 49.325 47.5 48.5V44H34V27.5H50.5V48.5Z" fill="white"/>
<path d="M44.5 30.5H35.5V33.5H44.5V30.5Z" fill="white"/>
<path d="M49 30.5H46V33.5H49V30.5Z" fill="white"/>
<path d="M44.5 35H35.5V38H44.5V35Z" fill="white"/>
<path d="M49 35H46V38H49V35Z" fill="white"/>
<defs>
<filter id="filter0_d_342_1436" x="0" y="0" width="80" height="80" filterUnits="userSpaceOnUse" color-interpolation-filters="sRGB">
<feFlood flood-opacity="0" result="BackgroundImageFix"/>
<feColorMatrix in="SourceAlpha" type="matrix" values="0 0 0 0 0 0 0 0 0 0 0 0 0 0 0 0 0 0 127 0" result="hardAlpha"/>
<feOffset dy="2"/>
<feGaussianBlur stdDeviation="4"/>
<feComposite in2="hardAlpha" operator="out"/>
<feColorMatrix type="matrix" values="0 0 0 0 0 0 0 0 0 0 0 0 0 0 0 0 0 0 0.15 0"/>
<feBlend mode="normal" in2="BackgroundImageFix" result="effect1_dropShadow_342_1436"/>
<feBlend mode="normal" in="SourceGraphic" in2="effect1_dropShadow_342_1436" result="shape"/>
</filter>
<linearGradient id="paint0_linear_342_1436" x1="27" y1="9" x2="46.5" y2="73" gradientUnits="userSpaceOnUse">
<stop offset="0.0351774" stop-color="#56C596"/>
<stop offset="1" stop-color="#2EBA7F"/>
<stop offset="1" stop-color="#2EBA7F"/>
</linearGradient>
</defs>
</svg>
