<svg width="80" height="80" viewBox="0 0 80 80" fill="none" xmlns="http://www.w3.org/2000/svg">
<g filter="url(#filter0_d_342_2937)">
<rect x="8" y="6" width="64" height="64" rx="16" fill="url(#paint0_linear_342_2937)"/>
</g>
<g filter="url(#filter1_d_342_2937)">
<rect x="8" y="6" width="64" height="64" rx="16" fill="url(#paint1_linear_342_2937)"/>
</g>
<path d="M20 58.0005L48 48.0005L30 30.0005L20 58.0005Z" fill="white"/>
<path d="M45.0599 39.0603L56.2399 27.8803C57.2199 26.9003 58.7999 26.9003 59.7799 27.8803L60.9599 29.0603L63.0799 26.9403L61.8999 25.7603C59.7599 23.6203 56.2599 23.6203 54.1199 25.7603L42.9399 36.9403L45.0599 39.0603Z" fill="white"/>
<path d="M36.1199 27.7604L34.9399 28.9404L37.0599 31.0604L38.2399 29.8804C40.3799 27.7404 40.3799 24.2404 38.2399 22.1004L37.0599 20.9204L34.9399 23.0604L36.1199 24.2404C37.0799 25.2004 37.0799 26.8004 36.1199 27.7604Z" fill="white"/>
<path d="M50.1199 37.7603L46.9399 40.9403L49.0599 43.0603L52.2399 39.8803C53.2199 38.9003 54.7999 38.9003 55.7799 39.8803L58.9999 43.1003L61.1199 40.9803L57.8999 37.7603C55.7399 35.6203 52.2599 35.6203 50.1199 37.7603Z" fill="white"/>
<path d="M46.1199 25.7604L38.9399 32.9404L41.0599 35.0604L48.2399 27.8804C50.3799 25.7404 50.3799 22.2404 48.2399 20.1004L45.0599 16.9204L42.9399 19.0404L46.1199 22.2204C47.0799 23.2004 47.0799 24.8004 46.1199 25.7604Z" fill="white"/>
<defs>
<filter id="filter0_d_342_2937" x="0" y="0" width="80" height="80" filterUnits="userSpaceOnUse" color-interpolation-filters="sRGB">
<feFlood flood-opacity="0" result="BackgroundImageFix"/>
<feColorMatrix in="SourceAlpha" type="matrix" values="0 0 0 0 0 0 0 0 0 0 0 0 0 0 0 0 0 0 127 0" result="hardAlpha"/>
<feOffset dy="2"/>
<feGaussianBlur stdDeviation="4"/>
<feComposite in2="hardAlpha" operator="out"/>
<feColorMatrix type="matrix" values="0 0 0 0 0 0 0 0 0 0 0 0 0 0 0 0 0 0 0.15 0"/>
<feBlend mode="normal" in2="BackgroundImageFix" result="effect1_dropShadow_342_2937"/>
<feBlend mode="normal" in="SourceGraphic" in2="effect1_dropShadow_342_2937" result="shape"/>
</filter>
<filter id="filter1_d_342_2937" x="0" y="0" width="80" height="80" filterUnits="userSpaceOnUse" color-interpolation-filters="sRGB">
<feFlood flood-opacity="0" result="BackgroundImageFix"/>
<feColorMatrix in="SourceAlpha" type="matrix" values="0 0 0 0 0 0 0 0 0 0 0 0 0 0 0 0 0 0 127 0" result="hardAlpha"/>
<feOffset dy="2"/>
<feGaussianBlur stdDeviation="4"/>
<feComposite in2="hardAlpha" operator="out"/>
<feColorMatrix type="matrix" values="0 0 0 0 0 0 0 0 0 0 0 0 0 0 0 0 0 0 0.15 0"/>
<feBlend mode="normal" in2="BackgroundImageFix" result="effect1_dropShadow_342_2937"/>
<feBlend mode="normal" in="SourceGraphic" in2="effect1_dropShadow_342_2937" result="shape"/>
</filter>
<linearGradient id="paint0_linear_342_2937" x1="27" y1="9" x2="46.5" y2="73" gradientUnits="userSpaceOnUse">
<stop offset="0.0351774" stop-color="#F8BC00"/>
<stop offset="1" stop-color="#FFAB2D"/>
</linearGradient>
<linearGradient id="paint1_linear_342_2937" x1="31.6" y1="6" x2="54.8" y2="70" gradientUnits="userSpaceOnUse">
<stop offset="0.016508" stop-color="#F8BC00"/>
<stop offset="0.659506" stop-color="#FFAB2D"/>
</linearGradient>
</defs>
</svg>
